<?xml version="1.0" encoding="UTF-8" standalone="no"?>
<!-- Created with Inkscape (http://www.inkscape.org/) -->

<svg
   width="297mm"
   height="210mm"
   viewBox="0 0 297 210"
   version="1.1"
   id="svg5"
   inkscape:version="1.1.1 (3bf5ae0d25, 2021-09-20)"
   sodipodi:docname="logo-icehammer.svg"
   xmlns:inkscape="http://www.inkscape.org/namespaces/inkscape"
   xmlns:sodipodi="http://sodipodi.sourceforge.net/DTD/sodipodi-0.dtd"
   xmlns="http://www.w3.org/2000/svg"
   xmlns:svg="http://www.w3.org/2000/svg">
  <sodipodi:namedview
     id="namedview7"
     pagecolor="#000000"
     bordercolor="#666666"
     borderopacity="1.0"
     inkscape:pageshadow="2"
     inkscape:pageopacity="0"
     inkscape:pagecheckerboard="0"
     inkscape:document-units="mm"
     showgrid="false"
     inkscape:zoom="0.45291836"
     inkscape:cx="-396.31867"
     inkscape:cy="519.96126"
     inkscape:window-width="2560"
     inkscape:window-height="1377"
     inkscape:window-x="-8"
     inkscape:window-y="-8"
     inkscape:window-maximized="1"
     inkscape:current-layer="layer1-8" />
  <defs
     id="defs2">
    <inkscape:path-effect
       effect="powerclip"
       id="path-effect55114"
       is_visible="true"
       lpeversion="1"
       inverse="true"
       flatten="false"
       hide_clip="false"
       message="Use fill-rule evenodd on &lt;b&gt;fill and stroke&lt;/b&gt; dialog if no flatten result after convert clip to paths." />
    <inkscape:path-effect
       effect="powerclip"
       id="path-effect55110"
       is_visible="true"
       lpeversion="1"
       inverse="true"
       flatten="false"
       hide_clip="false"
       message="Use fill-rule evenodd on &lt;b&gt;fill and stroke&lt;/b&gt; dialog if no flatten result after convert clip to paths." />
    <inkscape:path-effect
       effect="powerclip"
       id="path-effect28307"
       is_visible="true"
       lpeversion="1"
       inverse="true"
       flatten="false"
       hide_clip="false"
       message="Use fill-rule evenodd on &lt;b&gt;fill and stroke&lt;/b&gt; dialog if no flatten result after convert clip to paths." />
    <inkscape:path-effect
       effect="powerclip"
       id="path-effect26685"
       is_visible="true"
       lpeversion="1"
       inverse="true"
       flatten="false"
       hide_clip="false"
       message="Use fill-rule evenodd on &lt;b&gt;fill and stroke&lt;/b&gt; dialog if no flatten result after convert clip to paths." />
    <rect
       x="274.86996"
       y="291.42838"
       width="670.06451"
       height="157.85704"
       id="rect2828" />
    <clipPath
       clipPathUnits="userSpaceOnUse"
       id="clipPath26681">
      <rect
         style="display:none;fill:#000000;fill-opacity:1;stroke:none;stroke-width:4.85669;paint-order:stroke fill markers"
         id="rect26683"
         width="114.52914"
         height="2.7597384"
         x="303.01932"
         y="371.94458" />
    </clipPath>
    <clipPath
       clipPathUnits="userSpaceOnUse"
       id="clipPath28303">
      <rect
         style="display:block;fill:#000000;fill-opacity:1;stroke:none;stroke-width:4.85669;paint-order:stroke fill markers"
         id="rect28305"
         width="2.3457778"
         height="80.170403"
         x="320.21707"
         y="299.56836" />
    </clipPath>
    <clipPath
       clipPathUnits="userSpaceOnUse"
       id="clipath_lpe_path-effect55110">
      <rect
         style="display:none;fill:#000000;fill-opacity:1;stroke:none;stroke-width:4.85669;paint-order:stroke fill markers"
         id="rect55122"
         width="2.3457778"
         height="80.170403"
         x="320.21707"
         y="299.56836" />
      <path
         id="lpe_path-effect55110"
         style="fill:#000000;fill-opacity:1;stroke:none;stroke-width:4.85669;paint-order:stroke fill markers"
         class="powerclip"
         d="m 293.30588,266.55826 h 93.2691 V 464.7274 h -93.2691 z m 26.91119,33.0101 v 80.1704 h 2.34578 v -80.1704 z" />
    </clipPath>
    <clipPath
       clipPathUnits="userSpaceOnUse"
       id="clipath_lpe_path-effect55114">
      <rect
         style="display:none;fill:#000000;fill-opacity:1;stroke:none;stroke-width:4.85669;paint-order:stroke fill markers"
         id="rect55127"
         width="2.3457778"
         height="80.170403"
         x="320.21707"
         y="299.56836" />
      <path
         id="lpe_path-effect55114"
         style="fill:#000000;fill-opacity:1;stroke:none;stroke-width:4.85669;paint-order:stroke fill markers"
         class="powerclip"
         d="m 293.30588,266.55826 h 93.2691 V 464.7274 h -93.2691 z m 26.91119,33.0101 v 80.1704 h 2.34578 v -80.1704 z" />
    </clipPath>
  </defs>
  <g
     inkscape:label="Layer 1"
     inkscape:groupmode="layer"
     id="layer1">
    <g
       inkscape:label="Layer 1"
       id="layer1-8"
       transform="matrix(0.26458333,0,0,0.26458333,-60.147191,77.710373)">
      <text
         xml:space="preserve"
         id="text2826"
         style="font-size:40px;line-height:1.25;font-family:sans-serif;letter-spacing:15px;white-space:pre;shape-inside:url(#rect2828);fill:#ffffff" />
      <text
         xml:space="preserve"
         style="font-size:40px;line-height:1.25;font-family:sans-serif;letter-spacing:15px"
         x="600.5191"
         y="341.10367"
         id="text5606"><tspan
           sodipodi:role="line"
           id="tspan5604"
           x="600.5191"
           y="341.10367" /></text>
      <text
         xml:space="preserve"
         style="font-size:40px;line-height:1.25;font-family:sans-serif;letter-spacing:15px;fill:#ffffff;fill-opacity:1"
         x="163.37653"
         y="216.36349"
         id="text9008"><tspan
           sodipodi:role="line"
           id="tspan9006"
           x="163.37653"
           y="216.36349" /></text>
      <g
         id="g55106"
         clip-path="url(#clipath_lpe_path-effect55114)"
         transform="translate(227.79432,-241.33949)"
         inkscape:path-effect="#path-effect55110;#path-effect55114">
        <path
           style="fill:#ffffff;fill-opacity:1;stroke-width:2.75344;paint-order:stroke fill markers"
           id="path55094"
           width="23.911201"
           height="59.77219"
           x="298.30588"
           y="303.56833"
           sodipodi:type="rect"
           d="m 298.30588,303.56833 h 23.9112 v 59.77219 h -23.9112 z" />
        <path
           id="path55096"
           style="fill:#ffffff;fill-opacity:1;stroke:none;stroke-width:0.613496px;stroke-linecap:butt;stroke-linejoin:miter;stroke-opacity:1"
           d="m 300.30587,307.56834 4.30276,54.36745 c 0,0 20.35157,-28.09489 45.41981,-36.36625 38.07973,-12.56455 31.0322,-10.00327 31.0322,-10.00327 v -7.99793 z"
           sodipodi:nodetypes="ccsccc"
           inkscape:original-d="m 300.30587,307.56834 4.30276,54.36745 c 0,0 20.35157,-28.09489 45.41981,-36.36625 38.07973,-12.56455 31.0322,-10.00327 31.0322,-10.00327 v -7.99793 z" />
        <path
           style="fill:#ffffff;fill-opacity:1;stroke:none;stroke-width:2.89912;paint-order:stroke fill markers"
           id="path55098"
           width="18.443905"
           height="71.774536"
           x="338.91681"
           y="301.06799"
           sodipodi:type="rect"
           d="m 338.91681,301.06799 h 18.4439 v 71.77454 h -18.4439 z" />
        <path
           id="path55100"
           style="fill:#ffffff;fill-opacity:1;stroke:none;stroke-width:3.10575;paint-order:stroke fill markers"
           d="m 320.83984,262.01562 v 0.57422 h 11.95899 v -0.57422 z m 0,2.50586 v 65.26758 h 11.95899 v -65.26758 z m 0,68.02735 v 37.90103 l 11.95899,46.22562 v -84.12665 z"
           transform="translate(22.077909,43.051921)"
           sodipodi:nodetypes="ccccccccccccccc"
           inkscape:original-d="m 320.83984,262.01562 v 0.57422 h 11.95899 v -0.57422 z m 0,2.50586 v 65.26758 h 11.95899 v -65.26758 z m 0,68.02735 v 37.90103 l 11.95899,46.22562 v -84.12665 z" />
        <path
           style="fill:#000000;fill-opacity:1;stroke:none;stroke-width:4.85669;paint-order:stroke fill markers"
           id="path55102"
           sodipodi:type="rect"
           width="1.3798692"
           height="13.522718"
           x="350.21082"
           y="271.55826"
           d="m 350.21082,271.55826 h 1.37986 v 13.52272 h -1.37986 z" />
        <path
           style="fill:#000000;fill-opacity:1;stroke:none;stroke-width:4.85669;paint-order:stroke fill markers"
           id="path55104"
           sodipodi:type="rect"
           width="39.46426"
           height="1.9318169"
           x="329.51279"
           y="305.64114"
           d="m 329.51279,305.64114 h 39.46426 v 1.93182 h -39.46426 z" />
      </g>
      <path
         id="path55116"
         style="fill:#ffffff;fill-opacity:1;stroke:none;stroke-width:4.80202;paint-order:stroke fill markers"
         d="m 579.13003,154.86674 v 8.02734 h 28.97744 v -8.02734 z"
         sodipodi:nodetypes="ccccc" />
      <path
         id="path55118"
         style="fill:#ffffff;fill-opacity:1;stroke:none;stroke-width:4.80202;paint-order:stroke fill markers"
         d="m 579.13003,110.25641 v 8.02734 h 28.97744 v -8.02734 z"
         sodipodi:nodetypes="ccccc" />
      <path
         id="path55120"
         style="font-style:normal;font-variant:normal;font-weight:normal;font-stretch:normal;font-size:124.754px;line-height:1.25;font-family:'Agency FB';-inkscape-font-specification:'Agency FB, Normal';font-variant-ligatures:normal;font-variant-caps:normal;font-variant-numeric:normal;font-variant-east-asian:normal;letter-spacing:46.7827px;fill:#ffffff;fill-opacity:1;stroke-width:3.11885"
         d="m 770.6518,67.344035 -10.70312,60.042975 6.97461,2.81055 7.75,-47.625005 7.55273,46.746095 7.00781,-3.99218 -10.23633,-57.982435 z m -383.36718,0.24414 v 95.332045 l 8.46679,37.25586 V 67.588175 Z m 77.91015,0 c -1.9899,0 -3.61414,0.62977 -4.87305,1.88868 -1.25891,1.25891 -1.88867,2.88315 -1.88867,4.87304 V 156.1585 c 0,1.98989 0.62976,3.61413 1.88867,4.87304 1.25891,1.25891 2.88315,1.88868 4.87305,1.88868 h 24.54883 c 1.98989,0 3.63407,-0.62977 4.93359,-1.88868 1.29952,-1.25891 3.21738,-3.3396 1.94922,-4.87304 v -24.1836 h -8.52734 v 23.45313 H 466.89985 V 75.080365 h 21.19922 v 21.443361 h 8.52734 V 74.349895 c 0,-1.98989 -0.6497,-3.61413 -1.94922,-4.87304 -1.29952,-1.25891 -2.9437,-1.88868 -4.93359,-1.88868 z m 190.32812,0 v 17.74024 l 8.4668,3.41016 v -21.1504 z m 31.43165,0 v 30.398441 l 8.46679,3.412114 V 67.588175 Z m 167.15039,0 v 20.78516 l 11.42187,-6.50781 -3.5625,-14.27735 z m 109.16015,0 v 42.146495 l 7.98047,-1.00391 v -6.17773 c 0,-0.8122 -0.28497,-3.309354 -0.85351,-7.492194 l 3.52929,13.332034 7.15821,-0.90039 -9.95508,-39.904305 z m 39.29102,0 -9.58203,38.406255 7.67383,-0.96679 2.6387,-9.966804 c -0.5686,4.14223 -0.8535,6.639384 -0.8535,7.492194 v 2.25 l 7.9804,-1.00391 V 67.588175 Z m 69.8691,0 v 28.402351 l 8.4668,-1.06641 V 75.080365 h 22.4785 v -7.49219 z m 91.3125,0 v 16.9043 l 8.4668,-1.0664 v -8.34571 h 21.7461 v 5.60742 l 8.4668,-1.0664 v -5.27149 c 0,-1.98989 -0.6298,-3.61413 -1.8887,-4.87304 -1.259,-1.25891 -2.8832,-1.88868 -4.8731,-1.88868 z m -262.48434,0.84375 -9.25781,4.76758 -11.72266,46.986335 7.45118,-0.9375 6.40234,-24.187504 c -0.56854,4.14223 -0.85156,6.639384 -0.85156,7.492194 v 15.99609 l 7.97851,-1.00586 z m -34.6289,17.83008 -12.51953,6.445311 v 30.773444 l 7.98046,-1.00586 v -19.92187 c 0,-0.8122 -0.28302,-3.309354 -0.85156,-7.492194 l 7.05078,26.634774 6.96094,-0.87696 z m 335.79294,2.16407 -8.4668,0.92578 v 20.816405 h -15.1075 l -1.1562,1.70508 9.832,28.31445 8.6797,0.12696 c -2.7595,-7.6936 -5.5096,-15.40703 -8.2793,-23.08008 0.5279,0 1.3809,0.0399 2.5586,0.12109 1.1777,0.0406 2.0725,0.0605 2.6816,0.0605 6.1727,0 9.2579,-2.29388 9.2579,-6.88281 z m -546.89451,1.98242 v 72.511725 h 8.4668 v -45.8086 h 22.96485 v 40.67383 l 8.46679,-2.51563 v -49.07421 l -8.46679,-3.34961 v 6.65234 H 663.98969 V 93.760056 Z m 516.68161,1.318361 -8.4668,0.92382 v 47.187504 l 8.4668,0.125 z m -91.3125,9.970704 -8.4668,0.92578 v 35.86914 l 8.4668,0.125 v -20.34766 h 20.4688 v -7.61523 h -20.4688 z m -70.4785,7.69726 -7.9804,0.8711 v 27.19531 l 7.9804,0.11719 z m -11.24607,1.22852 -7.55469,0.82617 -4.5293,18.15039 c -0.16244,1.2183 -0.24414,2.13109 -0.24414,2.74024 -0.0812,-1.50257 -0.16292,-2.41536 -0.24414,-2.74024 l -4.27539,-17.13672 -7.11523,0.77735 6.33203,23.91211 10.5664,0.15625 z m -27.92188,3.04883 -7.98047,0.87305 v 22.33984 l 7.98047,0.11719 z m -69.99219,7.64453 -7.97851,0.87109 v 13.66602 l 7.97851,0.11719 z m -14.49609,1.58398 -7.36328,0.80274 -1.4707,5.89648 c -0.16244,1.2183 -0.24415,2.13109 -0.24414,2.74024 -0.0812,-1.50257 -0.16097,-2.41536 -0.24219,-2.74024 l -1.38086,-5.53125 -6.94336,0.75782 2.83594,10.71289 11.41797,0.16796 z m -24.67188,2.69336 -7.98046,0.8711 v 8.81054 l 7.98046,0.11719 z m -72.7246,0.44727 -7.07618,3.64258 0.44922,2.7832 7.5918,-0.95508 z m -30.13477,5.40039 -0.91797,5.15039 7.95899,-2.36328 z m 7.04102,2.78711 -8.13868,3.36523 -4.4707,25.08204 v 0.24414 h 8.16211 l 3.34961,-21.19922 h 18.94531 l 3.34961,21.19922 h 8.40625 l -5.02734,-28.47852 -7.82422,-0.21289 z m 16.75195,0 7.80664,0.11523 -0.16797,-0.94922 z m 71.08594,1.9375 v 26.75391 h 7.98046 v -26.53516 z m 18.14257,0.49609 4.58008,17.30274 h 1.70508 l 4.50195,-17.00977 z m 21.02735,0.57227 v 25.68555 h 7.97851 v -25.4668 z m 69.99023,1.9082 v 23.77735 h 7.98047 v -23.5586 z m 18.93555,0.51758 3.78711,14.30469 h 1.70508 l 3.7207,-14.05469 z m 20.23247,0.55078 v 22.70899 h 7.9804 v -22.49024 z m 69.9921,1.9082 v 20.80079 h 31.3106 v -7.49219 h -22.8438 v -13.07617 z m 91.3125,2.49024 v 18.31055 h 8.4668 v -18.08008 z m 25.5586,0.69726 6.1172,17.61329 h 8.8925 c -2.0693,-5.80666 -4.157,-11.57827 -6.2324,-17.37305 z" />
    </g>
  </g>
</svg>
